<mxfile host="app.diagrams.net" modified="2024-01-31T01:18:27.422Z" agent="Mozilla/5.0 (Windows NT 10.0; Win64; x64) AppleWebKit/537.36 (KHTML, like Gecko) Chrome/120.0.0.0 Safari/537.36" version="23.0.2" etag="QU6CYW5unYMpLetj4ov-" type="github">
  <diagram name="PÃ¡gina-1" id="_aa7ww54BflkHCcihE5E">
    <mxGraphModel>
      <root>
        <mxCell id="0" />
        <mxCell id="1" parent="0" />
      </root>
    </mxGraphModel>
  </diagram>
</mxfile>
